<?xml version="1.0" encoding="UTF-8" standalone="no"?>
<!-- Created with Inkscape (http://www.inkscape.org/) -->

<svg
   width="600"
   height="600"
   viewBox="0 0 600 600"
   version="1.1"
   id="svg1"
   xmlns="http://www.w3.org/2000/svg"
   xmlns:svg="http://www.w3.org/2000/svg">
  <defs
     id="defs1" />
  <g
     id="layer1">
    <path
       id="path50"
       style="opacity:1;fill:#000000;fill-opacity:1;stroke:none;stroke-width:1.79125;stroke-dasharray:none"
       d="M 279.92148,79.281364 C 394.22535,228.00699 401.59696,381.54326 380.51137,436.29132 l 128.05668,-6.71117 C 501.70864,321.05896 449.80254,215.51073 368.49442,142.69365 342.22671,119.16899 310.72266,95.300454 279.92148,79.281364 Z M 253.70545,237.28205 c 29.36011,96.17033 0.28685,178.57358 -19.53817,206.67884 L 359.60451,437.387 C 355.36201,358.49286 316.68017,285.39906 253.70545,237.28205 Z m -73.79321,129.67061 c -14.6274,50.95845 -62.32684,75.0552 -90.768599,84.60859 L 213.26237,445.05647 C 211.65074,415.944 199.85225,388.3136 179.91224,366.95266 Z M 77.024104,474.11317 c 7.089389,11.90107 20.322543,26.63262 34.736026,36.03026 64.46582,-11.52301 122.74719,-8.07695 180.26449,-0.52487 51.0727,6.70573 87.50749,10.87428 138.98423,11.09876 34.31784,0.14954 62.86887,-12.44916 69.8434,-20.68172 -11.46395,1.78636 -11.77088,1.7848 -23.18551,-0.10115 16.58369,-8.73752 33.53188,-23.51044 45.30916,-48.9814 z" />
  </g>
</svg>
